<?xml version="1.0" encoding="UTF-8" standalone="no"?>
<!-- Created with Inkscape (http://www.inkscape.org/) -->

<svg
   xmlns:dc="http://purl.org/dc/elements/1.1/"
   xmlns:cc="http://creativecommons.org/ns#"
   xmlns:rdf="http://www.w3.org/1999/02/22-rdf-syntax-ns#"
   xmlns:svg="http://www.w3.org/2000/svg"
   xmlns="http://www.w3.org/2000/svg"
   xmlns:xlink="http://www.w3.org/1999/xlink"
   xmlns:inkscape="http://www.inkscape.org/namespaces/inkscape"
   version="1.0"
   width="256"
   height="256"
   id="svg2">
  <metadata
     id="metadata33">
    <rdf:RDF>
      <cc:Work
         rdf:about="">
        <dc:format>image/svg+xml</dc:format>
        <dc:type
           rdf:resource="http://purl.org/dc/dcmitype/StillImage" />
      </cc:Work>
    </rdf:RDF>
  </metadata>
  <defs
     id="defs2426">
    <linearGradient
       id="linearGradient3315">
      <stop
         id="stop3317"
         style="stop-color:#63b132;stop-opacity:1"
         offset="0" />
      <stop
         id="stop3319"
         style="stop-color:#91dc47;stop-opacity:1"
         offset="0.29562443" />
      <stop
         id="stop3321"
         style="stop-color:#90b4fe;stop-opacity:1"
         offset="0.69841272" />
      <stop
         id="stop3323"
         style="stop-color:#5881d8;stop-opacity:1"
         offset="1" />
    </linearGradient>
    <linearGradient
       id="linearGradient3261">
      <stop
         id="stop3263"
         style="stop-color:#63b132;stop-opacity:1"
         offset="0" />
      <stop
         id="stop3265"
         style="stop-color:#5881d8;stop-opacity:1"
         offset="1" />
    </linearGradient>
    <linearGradient
       x1="112.49854"
       y1="6.1372099"
       x2="112.49853"
       y2="129.3468"
       id="path1082_2_"
       gradientUnits="userSpaceOnUse"
       gradientTransform="translate(287,-83)">
      <stop
         id="stop193"
         style="stop-color:#ffffff;stop-opacity:0"
         offset="0" />
      <stop
         id="stop195"
         style="stop-color:#ffffff;stop-opacity:0.27450982"
         offset="1" />
      <midPointStop
         id="midPointStop197"
         style="stop-color:#FFFFFF"
         offset="0" />
      <midPointStop
         id="midPointStop199"
         style="stop-color:#FFFFFF"
         offset="0.5" />
      <midPointStop
         id="midPointStop201"
         style="stop-color:#000000"
         offset="1" />
    </linearGradient>
    <linearGradient
       x1="541.33502"
       y1="104.50665"
       x2="606.91248"
       y2="303.14029"
       id="linearGradient3298"
       xlink:href="#path1082_2_"
       gradientUnits="userSpaceOnUse"
       gradientTransform="matrix(-0.6066055,0,0,0.6065715,581.83285,65.833783)" />
    <linearGradient
       x1="94.445183"
       y1="192.68773"
       x2="159.96414"
       y2="148.23235"
       id="linearGradient3325"
       xlink:href="#linearGradient3261"
       gradientUnits="userSpaceOnUse"
       gradientTransform="translate(57.51784,56.601259)" />
  </defs>
  <g
     transform="translate(-57.51784,-56.601259)"
     id="layer1">
    <path
       d="m 185.51784,56.601259 c -11.39483,27.937051 -18.31337,46.237171 -31,73.343751 7.77849,8.2452 17.33826,17.81176 32.84375,28.65625 -16.66992,-6.85958 -28.03357,-13.7285 -36.53125,-20.875 -16.23647,33.87988 -41.69085,82.12139 -93.3125,174.875 49.09018,-28.34062 84.85299,-43.53498 119.59375,-45.65625 -17.8179,-3.86923 -31.21875,-19.7572 -31.21875,-38.71875 0,-21.84724 17.77856,-39.625 39.625,-39.625 21.84724,0 39.625,17.77775 39.625,39.625 0,18.95092 -13.38404,34.83822 -31.1875,38.71875 34.76141,2.12093 70.49907,17.33104 119.5625,45.65625 -7.89193,-14.52961 -14.96051,-27.61983 -21.6875,-40.09375 -10.5961,-8.21269 -21.64301,-18.89743 -44.1875,-30.46875 15.4958,4.02645 26.60184,8.6825 35.25,13.875 -68.39515,-127.33983 -73.92078,-144.27213 -97.375,-199.312501 z m 0,135.843751 c -11.99292,0 -22.59597,5.88496 -29.09375,14.9375 3.38145,-2.11772 6.83026,-2.87106 9.84375,-2.84375 4.16234,0.0121 7.43019,1.30458 9,2.1875 0.3792,0.21852 0.74106,0.44568 1.09375,0.6875 2.80141,-1.234 5.89853,-1.9375 9.15625,-1.9375 12.56413,0.002 22.7484,10.18586 22.75,22.75 0,6.33469 -2.60445,12.06292 -6.78125,16.1875 1.02512,0.11488 2.1333,0.19313 3.25,0.1875 3.96551,0.002 8.25521,-0.85991 11.46875,-3.5625 2.09522,-1.76503 3.8388,-4.34402 4.8125,-8.21875 0.1904,-1.49671 0.31249,-3.04563 0.3125,-4.59375 0,-19.77451 -16.03719,-35.78126 -35.8125,-35.78125 z m 0,16.875 c -2.07835,0.004 -4.06802,0.31809 -5.9375,0.9375 3.8442,4.38165 5.68042,10.65034 7.46875,17.5 0.003,0.006 0.58637,1.9213 1.5625,4.4375 0.96968,2.51299 2.3374,5.60785 3.84375,7.875 0.98897,1.5192 2.07178,2.61695 2.8125,2.9375 0.22092,0.10926 0.74017,0.30236 1.4375,0.5 4.69176,-3.44411 7.73795,-9.01085 7.75,-15.28125 -0.0177,-10.45364 -8.48145,-18.88536 -18.9375,-18.90625 z m -18.9375,1.34375 c -6.67452,0.0627 -13.72309,3.74313 -16.65625,13.71875 -0.13496,1.26534 -0.21875,2.54227 -0.21875,3.84375 0,19.77531 16.03879,35.8125 35.8125,35.8125 12.11022,0 22.80275,-6.01598 29.28125,-15.21875 -3.50437,0.87328 -6.86424,1.30366 -9.75,1.3125 -1.08136,0 -2.09129,-0.0726 -3.03125,-0.1875 -2.50736,-0.31413 -4.59622,-0.67381 -6.40625,-1.3125 -3.04483,1.51197 -6.46325,2.34375 -10.09375,2.34375 -12.56252,0 -22.74839,-10.18347 -22.75,-22.75 0,-6.81833 2.99798,-12.92499 7.75,-17.09375 -1.27095,-0.30689 -2.58379,-0.47116 -3.9375,-0.46875 z m 8.0625,2.09375 c -4.85967,3.42483 -8.05045,9.06737 -8.0625,15.46875 0.012,6.30576 3.10619,11.90445 7.84375,15.34375 1.16169,-4.8404 4.0695,-9.27243 8.4375,-18.15625 -0.2595,-0.7126 -0.54401,-1.49306 -0.875,-2.3125 -1.20989,-3.0352 -2.97268,-6.55993 -4.53125,-8.15625 -0.79455,-0.83392 -1.74721,-1.5721 -2.8125,-2.1875 z m 9.375,16.125 c -0.3559,0.77124 -0.74974,1.64022 -1.15625,2.5625 -1.43806,3.25772 -3.0121,7.2105 -3.59375,9.75 -0.20888,0.90461 -0.34616,2.03841 -0.34375,3.28125 0,0.49167 0.0207,1.00504 0.0625,1.53125 2.03257,0.74715 4.23839,1.15223 6.53125,1.15625 2.0872,-0.004 4.09204,-0.34452 5.96875,-0.96875 -0.44106,-0.4033 -0.86678,-0.82805 -1.25,-1.3125 -2.54432,-3.24487 -3.97249,-8.00471 -6.21875,-16 z"
       inkscape:connector-curvature="0"
       id="path2518"
       style="fill:url(#linearGradient3325);fill-opacity:1;fill-rule:evenodd;stroke:none" />
    <path
       d="M 257.5696,208.75902 C 202.08304,133.44776 189.22185,72.749173 185.96416,58.257768 215.5623,126.52704 215.36013,127.36422 257.5696,208.75902 z"
       inkscape:connector-curvature="0"
       id="path2522"
       style="fill:#ffffff;fill-opacity:0.16568047;fill-rule:evenodd;stroke:none" />
    <path
       d="m 185.98659,57.695009 c -1.42338,3.499183 -2.81007,6.894756 -4.125,10.125 -1.45671,3.578408 -2.84196,6.99457 -4.21875,10.34375 -1.37667,3.349221 -2.74109,6.617678 -4.09375,9.84375 -1.35275,3.226219 -2.70913,6.415755 -4.09375,9.625 -1.38453,3.209121 -2.77769,6.451801 -4.25,9.750001 -1.47231,3.2983 -3.00915,6.6628 -4.625,10.15625 -1.61599,3.49349 -3.3097,7.11161 -5.125,10.90625 -0.25144,0.52558 -0.55662,1.12373 -0.8125,1.65625 7.75455,8.21322 17.30152,17.71724 32.71875,28.5 -16.62707,-6.84195 -27.9782,-13.68579 -36.46875,-20.8125 -0.44082,0.89993 -0.8271,1.7035 -1.28125,2.625 -0.59775,1.21296 -1.31546,2.59119 -1.9375,3.84375 -0.31542,0.64673 -0.64651,1.34249 -0.96875,2 -8.03188,16.38875 -18.34295,36.42086 -32.21875,62.375 32.4656,-18.29162 67.48339,-44.68199 131.09375,-21.96875 -3.18932,-6.0405 -6.12134,-11.70535 -8.875,-17.03125 -2.75362,-5.32607 -5.31196,-10.31478 -7.6875,-15.03125 -2.37536,-4.71637 -4.57043,-9.16304 -6.625,-13.375 -2.05455,-4.21186 -3.959,-8.18727 -5.75,-12 -1.7911,-3.81264 -3.47764,-7.48144 -5.0625,-11 -1.58496,-3.51852 -3.09501,-6.88931 -4.53125,-10.21875 -1.43639,-3.32962 -2.81139,-6.59831 -4.15625,-9.843751 -1.34499,-3.245541 -2.65791,-6.483239 -3.96875,-9.75 -0.33293,-0.829513 -0.66696,-1.696124 -1,-2.53125 -3.72832,-8.739675 -7.50706,-17.78017 -11.9375,-28.1875 z"
       inkscape:connector-curvature="0"
       id="path2520"
       style="fill:url(#linearGradient3298);fill-opacity:1;fill-rule:evenodd;stroke:none" />
    <path
       d="m 185.51743,267.86015 c -21.84644,0 -39.62133,-17.77408 -39.62133,-39.62293 0,-21.84724 17.77489,-39.62213 39.62133,-39.62213 21.84724,0 39.62213,17.77489 39.62213,39.62213 0,21.84885 -17.77489,39.62293 -39.62213,39.62293 l 0,0 z"
       inkscape:connector-curvature="0"
       id="path20"
       style="fill:none" />
    <path
       d="m 184.01784,228.88251 c -0.3559,0.77124 -0.74974,1.64022 -1.15625,2.5625 -1.43806,3.25772 -3.0121,7.2105 -3.59375,9.75 -0.20888,0.90461 -0.34616,2.03841 -0.34375,3.28125 0,0.49167 0.0207,1.00504 0.0625,1.53125 2.03257,0.74715 4.23839,1.15223 6.53125,1.15625 2.0872,-0.004 4.09204,-0.34452 5.96875,-0.96875 -0.44106,-0.4033 -0.86678,-0.82805 -1.25,-1.3125 -2.54432,-3.24487 -3.97249,-8.00471 -6.21875,-16 z"
       inkscape:connector-curvature="0"
       id="path22"
       style="fill:#91dc47" />
    <path
       d="m 185.51784,192.44501 c -1.30934,0 -2.60219,0.0504 -3.875,0.1875 -0.18514,0.0199 -0.37822,0.0397 -0.5625,0.0625 -0.0929,0.0115 -0.18859,0.0191 -0.28125,0.0312 -0.62985,0.0829 -1.25593,0.19731 -1.875,0.3125 -0.71112,0.13232 -1.3981,0.29501 -2.09375,0.46875 -0.49587,0.12384 -0.98132,0.26195 -1.46875,0.40625 -0.31406,0.093 -0.62711,0.17995 -0.9375,0.28125 -0.10423,0.034 -0.20869,0.0588 -0.3125,0.0937 -0.45406,0.15283 -0.89804,0.32964 -1.34375,0.5 -0.58688,0.22432 -1.17842,0.46488 -1.75,0.71875 -0.2083,0.0925 -0.41882,0.1849 -0.625,0.28125 -0.21893,0.10235 -0.43976,0.20587 -0.65625,0.3125 -0.58667,0.28894 -1.15073,0.58665 -1.71875,0.90625 -0.0405,0.0228 -0.0846,0.0396 -0.125,0.0625 -0.43841,0.24874 -0.85461,0.51479 -1.28125,0.78125 -0.33559,0.2096 -0.67197,0.40472 -1,0.625 -0.26626,0.17881 -0.52012,0.3768 -0.78125,0.5625 -0.37114,0.26362 -0.73327,0.53527 -1.09375,0.8125 -0.094,0.0723 -0.18802,0.14553 -0.28125,0.21875 -0.43154,0.33872 -0.86597,0.67346 -1.28125,1.03125 -0.19044,0.16413 -0.37558,0.33196 -0.5625,0.5 -0.35707,0.32092 -0.71861,0.6339 -1.0625,0.96875 -0.11639,0.11337 -0.2289,0.22882 -0.34375,0.34375 -0.84983,0.84998 -1.64483,1.756 -2.40625,2.6875 -0.26886,0.32885 -0.52399,0.66158 -0.78125,1 -0.19289,0.2537 -0.40753,0.49106 -0.59375,0.75 -0.005,0.007 0.005,0.0245 0,0.0312 3.38145,-2.11772 6.83026,-2.87106 9.84375,-2.84375 4.16234,0.0121 7.43019,1.30458 9,2.1875 0.3792,0.21852 0.74106,0.44568 1.09375,0.6875 2.80141,-1.234 5.89853,-1.9375 9.15625,-1.9375 12.56413,0.002 22.7484,10.18586 22.75,22.75 0,6.33469 -2.60445,12.06292 -6.78125,16.1875 1.02512,0.11488 2.1333,0.19313 3.25,0.1875 3.96551,0.002 8.25521,-0.85991 11.46875,-3.5625 2.09522,-1.76503 3.8388,-4.34402 4.8125,-8.21875 0.0926,-0.72804 0.16777,-1.47874 0.21875,-2.21875 0.001,-0.0205 -0.001,-0.042 0,-0.0625 0.0511,-0.76101 0.0937,-1.53844 0.0937,-2.3125 0,-1.85386 -0.1346,-3.65953 -0.40625,-5.4375 -0.1811,-1.18531 -0.42441,-2.35592 -0.71875,-3.5 -3.52957,-13.7192 -15.00893,-24.25355 -29.21875,-26.4375 -0.01,-0.002 -0.0212,0.002 -0.0312,0 -1.77798,-0.2717 -3.58356,-0.40625 -5.4375,-0.40625 z"
       inkscape:connector-curvature="0"
       id="path24"
       style="fill:#5881d8" />
    <path
       d="m 166.58034,210.66376 c -6.67452,0.0627 -13.72309,3.74313 -16.65625,13.71875 -0.0671,0.61654 -0.1212,1.24937 -0.15625,1.875 -5.8e-4,0.0104 5.8e-4,0.0208 0,0.0312 -0.0357,0.64644 -0.0625,1.28205 -0.0625,1.9375 0,1.85394 0.13457,3.69075 0.40625,5.46875 0.18112,1.18533 0.42439,2.35591 0.71875,3.5 3.97391,15.44517 18.00343,26.84375 34.6875,26.84375 1.51378,0 3.00459,-0.0987 4.46875,-0.28125 0.73208,-0.0913 1.46988,-0.20894 2.1875,-0.34375 0.0729,-0.0137 0.14595,-0.0171 0.21875,-0.0312 0.23996,-0.0467 0.48054,-0.10474 0.71875,-0.15625 0.4984,-0.10778 1.00958,-0.21544 1.5,-0.34375 0.59555,-0.15582 1.16699,-0.31468 1.75,-0.5 0.12557,-0.0399 0.25004,-0.0837 0.375,-0.125 0.13752,-0.0454 0.26947,-0.10921 0.40625,-0.15625 0.56551,-0.19447 1.13521,-0.40338 1.6875,-0.625 0.51663,-0.20731 1.02687,-0.42586 1.53125,-0.65625 0.0212,-0.01 0.0413,-0.0215 0.0625,-0.0312 0.62416,-0.28667 1.23954,-0.58533 1.84375,-0.90625 0.46768,-0.2484 0.91994,-0.51299 1.375,-0.78125 0.28265,-0.16648 0.56614,-0.32605 0.84375,-0.5 0.0707,-0.0444 0.14836,-0.0802 0.21875,-0.125 0.0874,-0.0556 0.16316,-0.13116 0.25,-0.1875 0.52551,-0.34091 1.05647,-0.69526 1.5625,-1.0625 0.4925,-0.35743 0.96435,-0.71228 1.4375,-1.09375 0.0914,-0.0737 0.19058,-0.14417 0.28125,-0.21875 0.32908,-0.27079 0.64965,-0.5616 0.96875,-0.84375 0.5258,-0.46457 1.03362,-0.94321 1.53125,-1.4375 0.23283,-0.23127 0.46106,-0.44995 0.6875,-0.6875 0.25313,-0.26567 0.50504,-0.53916 0.75,-0.8125 0.0783,-0.0874 0.14131,-0.19307 0.21875,-0.28125 0.29418,-0.33498 0.59329,-0.68538 0.875,-1.03125 0.0883,-0.10847 0.19417,-0.20298 0.28125,-0.3125 0.23679,-0.29768 0.46008,-0.60098 0.6875,-0.90625 0.0988,-0.13264 0.18427,-0.2722 0.28125,-0.40625 0.0884,-0.12224 0.16308,-0.25161 0.25,-0.375 -3.49351,0.86815 -6.84129,1.30369 -9.71875,1.3125 -1.08136,0 -2.09129,-0.0726 -3.03125,-0.1875 -2.50736,-0.31413 -4.59622,-0.67381 -6.40625,-1.3125 -3.04483,1.51197 -6.46325,2.34375 -10.09375,2.34375 -12.56252,0 -22.74839,-10.18347 -22.75,-22.75 0,-6.81833 2.99798,-12.92499 7.75,-17.09375 -1.27095,-0.30689 -2.58379,-0.47116 -3.9375,-0.46875 z"
       inkscape:connector-curvature="0"
       id="path26"
       style="fill:#63b132" />
    <path
       d="m 185.51784,209.32001 c -2.07835,0.004 -4.06802,0.31809 -5.9375,0.9375 3.8442,4.38165 5.68042,10.65034 7.46875,17.5 0.003,0.006 0.58637,1.9213 1.5625,4.4375 0.96968,2.51299 2.3374,5.60785 3.84375,7.875 0.98897,1.5192 2.07178,2.61695 2.8125,2.9375 0.22092,0.10926 0.74017,0.30236 1.4375,0.5 4.69176,-3.44411 7.73795,-9.01085 7.75,-15.28125 -0.0177,-10.45364 -8.48145,-18.88536 -18.9375,-18.90625 z"
       inkscape:connector-curvature="0"
       id="path28"
       style="fill:#90b4fe" />
    <path
       d="m 174.64284,212.75751 c -4.85967,3.42483 -8.05045,9.06737 -8.0625,15.46875 0.012,6.30576 3.10619,11.90445 7.84375,15.34375 1.16169,-4.8404 4.0695,-9.27243 8.4375,-18.15625 -0.2595,-0.7126 -0.54401,-1.49306 -0.875,-2.3125 -1.20989,-3.0352 -2.97268,-6.55993 -4.53125,-8.15625 -0.79455,-0.83392 -1.74721,-1.5721 -2.8125,-2.1875 z"
       inkscape:connector-curvature="0"
       id="path30"
       style="fill:#91dc47" />
  </g>
  <g
     id="layer2" />
</svg>
